/* XPM */
static char * GREY_xpm[] = {
"64 64 210 2",
"  	c #080303",
". 	c #2B2B2B",
"+ 	c #3B3B3B",
"@ 	c #2E2E2E",
"# 	c #393939",
"$ 	c #303030",
"% 	c #373737",
"& 	c #333333",
"* 	c #343434",
"= 	c #363636",
"- 	c #2F2F2F",
"; 	c #4F4F4F",
"> 	c #565656",
", 	c #5C5C5C",
"' 	c #555555",
") 	c #5A5A5A",
"! 	c #585858",
"~ 	c #575757",
"{ 	c #424242",
"] 	c #292929",
"^ 	c #414141",
"/ 	c #434343",
"( 	c #515151",
"_ 	c #505050",
": 	c #525252",
"< 	c #545454",
"[ 	c #4E4E4E",
"} 	c #444444",
"| 	c #383838",
"1 	c #2A2A2A",
"2 	c #323232",
"3 	c #313131",
"4 	c #3A3A3A",
"5 	c #2D2D2D",
"6 	c #3C3C3C",
"7 	c #535353",
"8 	c #464646",
"9 	c #B5B5B5",
"0 	c #D8D8D8",
"a 	c #D9D9D9",
"b 	c #CECECE",
"c 	c #D1D1D1",
"d 	c #D6D6D6",
"e 	c #D2D2D2",
"f 	c #D3D3D3",
"g 	c #D4D4D4",
"h 	c #D5D5D5",
"i 	c #7D7D7D",
"j 	c #787878",
"k 	c #A7A7A7",
"l 	c #C5C5C5",
"m 	c #C1C1C1",
"n 	c #C6C6C6",
"o 	c #C0C0C0",
"p 	c #BFBFBF",
"q 	c #B4B4B4",
"r 	c #B3B3B3",
"s 	c #919191",
"t 	c #636363",
"u 	c #3D3D3D",
"v 	c #4C4C4C",
"w 	c #626262",
"x 	c #5F5F5F",
"y 	c #646464",
"z 	c #616161",
"A 	c #606060",
"B 	c #474747",
"C 	c #CACACA",
"D 	c #CDCDCD",
"E 	c #CFCFCF",
"F 	c #C8C8C8",
"G 	c #C9C9C9",
"H 	c #A0A0A0",
"I 	c #838383",
"J 	c #969696",
"K 	c #A6A6A6",
"L 	c #8B8B8B",
"M 	c #949494",
"N 	c #8E8E8E",
"O 	c #9B9B9B",
"P 	c #7F7F7F",
"Q 	c #6C6C6C",
"R 	c #999999",
"S 	c #A1A1A1",
"T 	c #9F9F9F",
"U 	c #9C9C9C",
"V 	c #858585",
"W 	c #7B7B7B",
"X 	c #5B5B5B",
"Y 	c #595959",
"Z 	c #A4A4A4",
"` 	c #A3A3A3",
" .	c #9E9E9E",
"..	c #8A8A8A",
"+.	c #686868",
"@.	c #404040",
"#.	c #494949",
"$.	c #C2C2C2",
"%.	c #B7B7B7",
"&.	c #C4C4C4",
"*.	c #B6B6B6",
"=.	c #BCBCBC",
"-.	c #BEBEBE",
";.	c #BBBBBB",
">.	c #B2B2B2",
",.	c #ABABAB",
"'.	c #6F6F6F",
").	c #A8A8A8",
"!.	c #929292",
"~.	c #989898",
"{.	c #979797",
"].	c #959595",
"^.	c #696969",
"/.	c #454545",
"(.	c #DEDEDE",
"_.	c #D7D7D7",
":.	c #D0D0D0",
"<.	c #B1B1B1",
"[.	c #A2A2A2",
"}.	c #C3C3C3",
"|.	c #AEAEAE",
"1.	c #5D5D5D",
"2.	c #484848",
"3.	c #AAAAAA",
"4.	c #A9A9A9",
"5.	c #A5A5A5",
"6.	c #ACACAC",
"7.	c #909090",
"8.	c #353535",
"9.	c #767676",
"0.	c #939393",
"a.	c #9D9D9D",
"b.	c #8C8C8C",
"c.	c #797979",
"d.	c #C7C7C7",
"e.	c #3F3F3F",
"f.	c #9A9A9A",
"g.	c #828282",
"h.	c #B9B9B9",
"i.	c #898989",
"j.	c #6B6B6B",
"k.	c #656565",
"l.	c #8D8D8D",
"m.	c #818181",
"n.	c #8F8F8F",
"o.	c #262626",
"p.	c #868686",
"q.	c #727272",
"r.	c #6E6E6E",
"s.	c #737373",
"t.	c #7C7C7C",
"u.	c #282828",
"v.	c #1D1D1D",
"w.	c #3E3E3E",
"x.	c #4B4B4B",
"y.	c #252525",
"z.	c #7E7E7E",
"A.	c #7A7A7A",
"B.	c #878787",
"C.	c #242424",
"D.	c #272727",
"E.	c #202020",
"F.	c #232323",
"G.	c #4D4D4D",
"H.	c #BABABA",
"I.	c #5E5E5E",
"J.	c #2C2C2C",
"K.	c #6D6D6D",
"L.	c #AFAFAF",
"M.	c #4A4A4A",
"N.	c #B0B0B0",
"O.	c #848484",
"P.	c #747474",
"Q.	c #717171",
"R.	c #222222",
"S.	c #212121",
"T.	c #CBCBCB",
"U.	c #888888",
"V.	c #B8B8B8",
"W.	c #BDBDBD",
"X.	c #808080",
"Y.	c #E4E4E4",
"Z.	c #676767",
"`.	c #1E1E1E",
" +	c #E0E0E0",
".+	c #ADADAD",
"++	c #777777",
"@+	c #6A6A6A",
"#+	c #1F1F1F",
"$+	c #1C1C1C",
"%+	c #757575",
"&+	c #666666",
"*+	c #191919",
"=+	c #111111",
"-+	c #121212",
";+	c #131313",
">+	c #181818",
",+	c #707070",
"'+	c #DDDDDD",
")+	c #CCCCCC",
"!+	c #DCDCDC",
"~+	c #DBDBDB",
"{+	c #DADADA",
"]+	c #1B1B1B",
"^+	c #E1E1E1",
"/+	c #DFDFDF",
"(+	c #E2E2E2",
"_+	c #E3E3E3",
":+	c #E5E5E5",
"<+	c #EBEBEB",
"                                                                                                                                ",
"                                                                                                                                ",
"    . + @ # $ % & * = - ; > , ' ) ' ) > , > ! ~ ~ ) ! { ] ^ / ( _ > : ~ _ < [ [ } = * . | 1 # 1 # . % @ = 2 * = 3 | - 4 5 6     ",
"    ' 7 < _ 7 ( : : : 8 9 0 0 a b 0 c a 0 d e f g a h i 3 j k 9 l m n l o p q r s t * u v < ' : ' ' < ; _ ( _ _ ( ; : [ 7 [     ",
"    w t x w y z A ) ( B m h C D m b c E F c F m e G H ( * I m 9 J K L M s M N O P { ] = Q R S O S T U V W Q ~ ! , X ~ Y , )     ",
"    Z `  .S R s ..+.@.#.m c $.%.&.*.=.-.%.m ;.>.m ,.'.# = R n ).!.H O Z ~.S {.].^./.] = I b (._.0 :.d $.o <.[.[.S [. .[.H `     ",
"    F G G }.|.H V 1.{ 2.l e |.3.[.4.O k 4.5.`  .6.7.A * 8.9.6.M {.0.H Z K a.b.c.1./ ] = P e f *.%.*.l e :.F d.C -.&.$.n =.}.    ",
"    |.5.5.` [.].9.7 e.} E E ).T 3.` ).f.S f.O !.).0.w & 8.8 0.s  .K L U f.~.J 1.v { ] = g.D h.[.O O ]. .U {.s {.~.U J S !.R     ",
"    *.H ].5.R i.j.#.= e.E 0 4.s a. .k ].M s 0.]. .N k.* 8.8 k.l.~.4.R S f.~.{.! # 6 ] = m.g 9 a.R N 7.].n.!.U N f.T T s O O     ",
"    3.4.U H N c.( u o.4 p d.Z U a.O ).J 7.p.0.J T g.Y 8.. /.[ q.0.g.9.r.r.j s.#.* - - # t.g F S ~.l.i.U i.b.T R J ~.O {.0.].    ",
"    ].O J l.i ! B | u.u T e *. .).N f.7.!.l.7.0.U W +./ v.w.x.{ ~ | % | | 2 $ * y.v.4 { , n E J R ..N J !.M !.H J J ).U J 7.    ",
"    z.A.A.j Y #.@.2 y.w.B.c 3.Z O n.V n.M f.7.a.a.m.k.2.C.% /.+ 1 1 ] u.D.E.u.1 y.F.@.[ G.H.9 M  .N T !.7...j m.W z.V s.I 9.    ",
"    I., ~ < / @ ] C.J.6 K.G L.M ].g.t.i.` f.l...N g.k.M.D.% /./ e./.z Q m.l.L 0.l.q.v v _ N.f.t.O.P.W Q.+.k., ' ( [ : _ _ (     ",
"    3 2 J.J.$ @ 1 J.$ 2._ F d.].s b.0.0.n.~.~.m.R J j./ D.% / j.~.S }.c _.G G %.L +.u M.G.7.j +.w ~ ; [ B ^ ^ e.e.& + 3 + $     ",
"    R.& o.2 S.@ 3 - # #.2.` T.U S U.V ].T N n.0.N g.z ^ u.o.{ a.V.g E V.K 6.4.H W > 1 4 w._ 2.8 / @.w.u u & o.D.D.R.y.S.y.E.    ",
"    # + # 4 | # 4 # 4 8 M.V p ,.7.[.].B.U...O.U U q.' 8 u.& B ).h W.6.0.7.n.b.!.s./.] 8.. u.# 1 . % D.- 8.3 6 4 | | | | | |     ",
"    ! ( 8 8 8 8 8 e.% #.x.Q H.~.` U M ` U U !.O R X.y > J.F.G.3.Y.3.7.s S ~.f.~.m.{ ] 8.8 ) t w ; - B G.; ; _ ; ; [ ; ; ; M.    ",
"     .O J O J R M {.Z.`.x.; r 9 a.!.i.R 0.X.7.!.n.i w ' 3 E.[ 3. +s J k  .].H s q.{ ] = Q k e }.) #.y b.T U O T T R  .T H  .    ",
"    T.$.G G }.&..+n.Y ] M.v V |.R [.!.B.n.l.s U A.i ++' @ E.[ k &.,.[...N O J !.^.8 ] = [.T.&.` % < M C g 0 _.c g 0 d E d b     ",
"    3.f.{.` O K s '.Y u.8 v +.{.` U.H O i.!.A.z.A Z.I.#.J.E.x.` H.S ..Q Q @+1.7 : } ] w.}.&.).I 3 x ,.f &.q N.L.q r ,.|.r r     ",
"    ).!.{.f.U !.p.Q ' ] u _ v i.O.'.Q +.k._ X , ! ! } J.#+E.+ s U.r.W ) 8.= = = = = o.' D r ~.p.3 I.|.E ).H T R  .~.!.B.].J     ",
"    4.s O T J [.n.z B 1 w.( M.' G.x.v 2.u w.4 . $+v.v.`.`.`.- %+&+4 - . *+*+E.F.`.o.E.t E q 4.O.3 I.).}.U f.J M ~.~.B.I 7.b.    ",
"    S O J n.f.N L w 8 1 4 G.#.@ - =+o.-+;+>+$+v.J.* $ 3 - 5 + I.+.y K.^.) ) ) v J.* ^ n.g q a.O.3 Y a.h.J a.T f.f.{.s O.M {.    ",
"    7.{.c.P 0.a.i.1./.1 & I.U Z H M i.j s.X 6 $ x.I.P.X.V 7.M 9 h.H.o }.h.9 T j { 2 t h.f 6.J P.- ~ ].;.S 7.R J M J m.A.b.n.    ",
"    N L R 0.7.~.A.> ^ . 3  .:.T.o ;.q ,. .p.x.B x {.d.D D T.}.D h b b :.g D <.P./ @ P.b m H O r.@ 7 n.9 a.U ~.{.f.s 0...O s     ",
"    ~.T R a.{.p.q.G.w.. - }.h.a.].` [.O f.N # [ ,+p '+&.m 6.L.k 5.L.N.N.,.` N ) | - t._.V.!.O w 5 v %+T P X.q.9.A.9.B.B.R L     ",
"    z.X.q.c.z.t ( @.+ . - o <.[.Z {.k M T r.& M.j b )+ .5.7.N ` a.~.N a.U 7.B.( & - %+!+;.T {.) 5 M.^ x : [ x.M.: ' ' z K.^.    ",
"    ! ( _ 2.2.6 . ] 1 R.- }.Z k O H k n.I ; & B ++f =.T U ~.a.0.J O.7.S M s X.v = - j !+4.k n.< - _ 3 o.1 - - - $ - @ e.} #.    ",
"    3 @ J.u.u.y.. J.% } @.d.N. .b.k f.a.%+( J.@.++f H.s S 7.M m.b.P n.N J  .j v = - P.~+9 ).U.> - : 4 8.8.8.8.= u.$ o.o.u.J.    ",
"    8 I.z r.U.b.X.X.p.k.- l %.p.M J [.L t.) - & ,+E d.].l.l.g...m.n. .m.N ~...x.* - A.!+6.k S ~ - < 2.2.G._ [ _ ; [ ; u % %     ",
"    +.7.%.:.b c G &.r p.u l *.Z L m.J H z., 3 3 '.&.G ` 7.S s S A.m.7.m.{.U 9.#.5 - t.G [.M Z > . y N.)+=.H W w ) > Y G.8 ;     ",
"    Q.N.D F }.9 L.).k c.o.e 3.U ` O.M K 7.z 4 & t 9 D r 7.7.z.7.i V H 0.T U.,+/.J.- t.b r M n.' 1 c.T.s ` l g T.b e c R [ (     ",
"    A.f %.,.S {.H  .~.W @.f N.Z J k ` s f.w w.. / H 0 W.4.a.7.[.i.H P I f.M t #.J.& i n Z 5.N 7 1 W E l.].,.T M 5.H 7.g.x.G.    ",
"    j b <.J M H T ~.O ..w.c <.n.U 5.].S O.z } `.e.L {+l ,.a.M N g.N z.l.T g.z e.5 6 z.l >.K L ~ 1 j c 4.a.n.a.K J T ~.Q { 8     ",
"    W h ).f.T R 4.~.R c.J.l V.Z K n.].f.O x / ] { Q.E G .+].T b.l.J n.H {.s 7 8.5 6 i l k {.R > 1 q.m ` O 4.f.b.a.O ` ,+^ 8     ",
"    A.f .+S {.{.O S ~.'.$ o n L {.N Z [.l., 2.]+# ! N.d.<.!...J 7.!.U l.l.A.; @ F.w.W -.f.J ! [ - r.=.K H S U R n.a.H @+@./     ",
"    c.E r U K T a.f.U c.@ 6.a M  . .n.s N x 2.]+= M.!.C %.n.O i.J V 7.j P.> 8 @ $ ^ &+b.%+[ 6 6 u ~ O n.U.0.V n...c.7.Z.@.+     ",
"    W d N.[.T O U O U s.@ R e ~.R M ~.7.J k.2.$+- B Q a.Z B.Q.I.( / # 4 $ 2 2 ] 3 e.; / w.{ /.#.M.} > 6 6 } /.} } / /./.= 4     ",
"    c.c ,.s  .H f.R ~.9.2 z.)+,.n.).f.b.!.t /.$+u.8 #.Z.,+~ /.# @ #+] S.] $+y.y.$ / [ ; 2.M.[ ; [ x.2 2 - ] ] ] ] ] ] 1 5 #     ",
"    c.c q a.].{.[. .a.P.& x h ,.U U l.a.N z / v.D.^ #.@.5 8.5 . 5 # w.# + 4 6 6 + { ; 7 A t t t w t y t w x x x x x x , { /.    ",
"    W d |.U U J U  .l.r.8.8 {+|.].B.U.U s y 8 $+D.4 : t y t t t y Z.&+Z.k.^.Z.'.9.P.i i.U R ).S 4.[.).T Z K K 5.).Z 3.O.#.[     ",
"    ++G N.S T U U T X./.u./.{+L.!.O ..7.L t v 1 v.$ t [.)..+K |.K L.|.k 6.).,.6.|.*.n b ~+~+^+/+(+/+(+(. +^+_.c c )+<.t.6 M.    ",
"    ++G >. .` f.4.O P.= 5 / {+5.H n.].l.M z M.3 `.S.y 9 l /+^+Y.^+_+0 a Y.(.!+_+(+:+<+_+Y.(.!+D T.D f G n :.T.}.G &.0.t - x.    ",
"    P.;.q S O a.!.!.'.8.& } E N.).i.[.n.b.1.G.$ `.*+t 9 F d.:.G :.F C W.T.C p D )+d.m ;.<.,.` U 3.T ,.!.{.5.` [.5.3.g.X 6 @.    ",
"    k.H.!.f.T O.P.9.k.= & 8 $.f.].S !.S B.y [ $ `.]+> k g -.T {.M ~.f.O 5.U 6.Z R a.).3.k M I J 7.K K s !.T U ).H J ++! 3 #     ",
"    X >.5.` {.t.! ! / F.% 8 ,.).L M [.s X.^.x.$ `.v.4 ,.a o {.7.7.[.s {.M T  .b.].[.3.M R s ].!.b.p.n.f.].U ~.a.O H i ) u +     ",
"    ; z.z.++1.) ' < 6 $ + @.7.O S B.n.B.Q w x.$ `.#+]+a.d f .+Z L !.s L V n.J f.].7.H  .p.B.s [...!.S L i O.i.s 0.7.A.) @ #     ",
"    2./ & - 4 : ; : u & w.B Q.j.y &+&+z A : M.$ `.`.. !.T.:. .L [.J H i.]. .U.P n.f.l.T J [.s !.S U.b.O.7.U.J O X.P q.) 5 #     ",
"    ( < [ / % . ] y.- 4 e.u w.+ 4 + + 4 4 # # - `.#+`.A.o *.Z N n. .L O U.N 0.l.l.!.M B.T ..l.I 0.N 7.7.S i.p.7.U.g.Q.) 5 #     ",
"    #.! y y k.w > /.@ % 2.@.4 C.E.o.E.S.y.#+F.F.F.R.$ K.b.,+j.@+&+@+@+9.R 0.` ].i.g.X.i.b.P ..N  ...a.L J J p.b.L 0.++Y 5 #     ",
"    ( N >.%.h.<.).J P.Q +.( /.* 5 = y.] 8.y.@ 2 3 $ * [ x.@.+ J.| J.| * ! @+Q i W s.s.s.s.s.s.s.s.P.s.P.s.s.s.s.s.s.Z.v @ #     ",
"    ! |.C T.)+F a e m -.).i.i j s.K.Q j.w 1.) < 7 [ x.~ G.#.w.6 u u w.% 3 /.M.x.x.v M.G.#.[ 2.x.2.M.2.M.B #.#.#.2.B B 1 | 6     ",
"    ! N.E ,.5.Z -.n T.e )+&.$.-.m -.m =.V.q >.k S a.n.p.t.i j ++w B M.e.= 3 * & 2 8.$ % y.- J.3 ] E.D.S.o.F.C.y.R.D.. J.u /     ",
"    ! <.d k H ).U ~.H 5.*.F $.}.}.&.}.n G &.G o m m p o &.m p <.O.M.[ #.^ + 8.* # * | + $ 5 # - # 3 | 2 = * 8.= & % u @.2.[     ",
"    ! L.)+k T  .L f.R 7...[...R U !.V T H p.].7.5.H |.V.&.}.o T %+% } [ A 7.k !.Z./ % 6 8 #.2.u % * # | = = 4 % 4 w.} [ _ 7     ",
"    ! .+$.k  .T L ].a.!.a.,.{...0.J i n.!.l.7.J T f.H M ` ,.[.P.Y D.w.2.O.G $.d.$.%..+f.y 7 ' 0.>.<.6.q r L.3.5.0.I r.< G.:     ",
"    ! k U X.9.i j.P.g.A.z.V t.s.,+X.Q.s.Q.j W P i t.X.9.X.I i A ( & $ w.L D .+H.l d.n ;.P.~ P.)+=.m ;.V.;.9 h.*.K ` 9 s B _     ",
"    < s @+M.2.#.#.#.2.x.2.#.2.x.x.B x.2.M.2.x.#.#.2.#.2.#.B M././ # S.$ P =.<.*.,.b.f.R ,+> ` V.{.5.M 5.k ~.O  .T J N.g.= :     ",
"    #.' | D.D.D.D.D.D.D.D.D.D.D.D.D.D.D.D.D.D.D.D.D.D.D.D.D.D.D.u.D.#+- ! Q j.,+9.Z.'.,+t Y C [.R T Z 5.R S S O 5.J 0.z J.7     ",
"    _ 8 % % 3 1 - #+- . E.2 y.S.* y.& E.D.3 `.J.5 `.$ u.#+& C.R.* y.& . /.[ M.6 4 * 8.= * ^ c.@+&+&+j.+.y +.Z.Z.@+&+A > @ _     ",
"    : 7 G.G.} / /.8 /.8 8 w.| | + | 4 | # 4 | # 4 | 4 # | 4 | | + # 4 # { : : [ / % | | | + G.; @ J.. J.J.J.. J.J.J.. 5 o.:     ",
"    w.w.w.w.6 6 u u u u u + + + + + + + + + + + + + + + + + + + + + + + 6 w.w.w.6 + + + + + u u # # # # # # # # # # # # # w.    ",
"                                                                                                                                ",
"                                                                                                                                "};
